<svg xmlns="http://www.w3.org/2000/svg" width="234.984" height="224.037" viewBox="0 0 234.984 224.037"><defs><style>.a{fill:#ff5ae1;}.b{fill:#fff;}</style></defs><g transform="matrix(0.875, 0.485, -0.485, 0.875, 75.042, 0)"><path class="a" d="M123.28,1.985,14.728,48.821A24.481,24.481,0,0,0,1.985,80.9l25.527,59.164A24.477,24.477,0,0,0,59.589,152.8l32.085-13.84,28.1,11.158a3.964,3.964,0,0,0,5.12-2.2l11.158-28.1,32.085-13.848a24.475,24.475,0,0,0,12.743-32.077L155.358,14.72A24.485,24.485,0,0,0,123.28,1.985Z"/><path class="b" d="M55.817,71.138a4.453,4.453,0,0,1-3.576.041L19.27,58.387a13.578,13.578,0,0,1-1.512-.569c-.658-.284-1.772-.837-3.308-1.682a38.148,38.148,0,0,1-4.364-2.755,27.514,27.514,0,0,1-4.315-4.039,20.689,20.689,0,0,1-3.5-5.421C-.373,37.85-.706,32.226,1.261,27.212c1.975-5.031,6.038-8.9,12.069-11.524a17.806,17.806,0,0,1,5.705-1.39,22.783,22.783,0,0,1,5.957.3q2.767.512,4.86,1.113c.723.2,1.447.431,2.162.683.309-.7.634-1.382.983-2.057.658-1.292,1.5-2.723,2.5-4.307a22.5,22.5,0,0,1,3.836-4.559,18.093,18.093,0,0,1,4.909-3.226C50.275-.38,55.882-.7,60.9,1.278s8.9,6.071,11.54,12.134c2.649,6.1,2.308,13.621-1.008,22.357L58.271,68.594A4.467,4.467,0,0,1,55.817,71.138Z" transform="translate(51.819 43.455)"/></g></svg>