<svg xmlns="http://www.w3.org/2000/svg" width="279.821" height="119.414" viewBox="0 0 279.821 119.414"><defs><style>.a{fill:#541da8;}.b{fill:#fff;}</style></defs><g transform="translate(-235.621 -73.49)"><g transform="translate(265.063 89.745)"><path class="a" d="M300.484,114.711v6.479l11.234,12.888v9.855c0,4.48-3.446,9.787-9.3,9.787a9.8,9.8,0,0,1-9.717-9.787v-8.615h7.788v8.615a1.987,1.987,0,0,0,1.93,2,2.079,2.079,0,0,0,1.792-2v-7.375l-11.51-13.3v-8.547a9.515,9.515,0,0,1,9.717-9.442,9.323,9.323,0,0,1,9.3,9.442v7.719h-7.512v-7.719a1.97,1.97,0,0,0-1.792-2A1.9,1.9,0,0,0,300.484,114.711Z" transform="translate(-292.696 -105.131)"/><path class="a" d="M358.659,112.72H347.976v18.953h7.444v7.719h-7.444v6.341h10.683v7.719h-18.4V105h18.4Z" transform="translate(-315.723 -105.001)"/><path class="a" d="M397.85,125.807l-.069-10.82a1.942,1.942,0,0,0-1.792-2.068,2.408,2.408,0,0,0-1.723,1.171c0,.207-.069.551-.069.9V144a2.139,2.139,0,0,0,1.792,2,1.756,1.756,0,0,0,1.654-1.171.518.518,0,0,0,.069-.345,3.653,3.653,0,0,0,.069-.965c.069-.758.069-1.792.069-2.756.069-1.379,0-2.757,0-3.722h-3.1v-6.755h10.545V144c0,4.962-3.1,9.718-9.374,9.718-6,0-9.3-5.1-9.3-9.718V114.987c0-4.618,3.377-9.718,9.373-9.718a8.611,8.611,0,0,1,6.961,2.894,10.929,10.929,0,0,1,2.413,6.547v3.86Z" transform="translate(-338.168 -105.131)"/><path class="a" d="M433.643,153.72V105.269h9.3a9.636,9.636,0,0,1,9.649,9.718v2.619a10.477,10.477,0,0,1-1.792,5.858,11.186,11.186,0,0,1,1.792,5.789V153.72h-7.788V128.564l-3.446,2.481V153.72Zm11.165-33.564v-5.169a1.95,1.95,0,0,0-1.861-2.068h-1.585v9.855Z" transform="translate(-360.936 -105.131)"/><path class="a" d="M499.473,112.72H488.791v18.953h7.443v7.719h-7.443v6.341h10.682v7.719h-18.4V105h18.4Z" transform="translate(-383.898 -105.001)"/><path class="a" d="M537.148,105.269a9.588,9.588,0,0,1,9.58,9.786v28.878c0,4.618-3.86,9.787-9.58,9.787H527.43V105.269Zm-2,40.731h2a2,2,0,0,0,1.861-2.068V115.055c0-1.447-.758-2.343-1.861-2.343h-2Z" transform="translate(-406.343 -105.131)"/><path class="a" d="M695.54,114.711v6.479l11.234,12.888v9.855c0,4.48-3.446,9.787-9.3,9.787a9.8,9.8,0,0,1-9.718-9.787v-8.615h7.788v8.615a1.987,1.987,0,0,0,1.93,2,2.079,2.079,0,0,0,1.792-2v-7.375l-11.51-13.3v-8.547a9.515,9.515,0,0,1,9.718-9.442,9.324,9.324,0,0,1,9.3,9.442v7.719h-7.513v-7.719a1.969,1.969,0,0,0-1.792-2A1.9,1.9,0,0,0,695.54,114.711Z" transform="translate(-483.963 -105.131)"/></g><path class="b" d="M484.136,132.736l4.071-4.071a1.151,1.151,0,0,0,0-1.629l-.543-.543a1.151,1.151,0,0,0-1.629,0l-4.071,4.071-4.071-4.072a1.151,1.151,0,0,0-1.628,0l-.544.543a1.151,1.151,0,0,0,0,1.628l4.072,4.072-4.071,4.071a1.151,1.151,0,0,0,0,1.629l.543.543a1.151,1.151,0,0,0,1.628,0l4.071-4.071,4.071,4.071a1.151,1.151,0,0,0,1.629,0l.543-.543a1.151,1.151,0,0,0,0-1.629Zm0,0" transform="translate(-116.083 -25.498)"/><path class="b" d="M620.884,98.482l-.067,6.041,1.8.015V99.575h7.356V98.549Zm0,0-.067,6.041,1.8.015V99.575h7.356V98.549Zm17.606,5.839,1.207-.763V89.96h-9.734a5.152,5.152,0,0,1,.4.789l.361.877a1.535,1.535,0,1,1-2.837,1.171l-.361-.877a2.355,2.355,0,1,0-4.354,1.8l.361.882a1.549,1.549,0,0,1,.1.815h6.268a3.143,3.143,0,0,1,3.142,3.136v5.974a3.143,3.143,0,0,1-3.142,3.136h-9.022a3.142,3.142,0,0,1-3.136-3.136V98.549a3.142,3.142,0,0,1,2.811-3.121l-.227-.536a5.406,5.406,0,0,1,.413-4.932h-.913a3.8,3.8,0,0,0-3.8,3.807v35.7h19.643A1.533,1.533,0,0,1,637.211,131H639.7v-4.189a4.5,4.5,0,0,1-3.121-4.173,4.415,4.415,0,0,1,.851-2.719,4.574,4.574,0,0,1,.371-8.362,4.446,4.446,0,0,1-.727-.877,4.612,4.612,0,0,1,1.419-6.355Zm-15.873-4.746h7.356V98.549l-9.089-.067-.067,6.041,1.8.015Z" transform="translate(-184.176 -7.974)"/><g transform="translate(408.007 73.49)"><g transform="translate(0)"><path class="a" d="M624.733,89.682a4.606,4.606,0,0,0,2.053-2.925,4.732,4.732,0,0,0,.113-1.037,4.666,4.666,0,0,0-6.51-4.271V80.041a6.557,6.557,0,0,0-6.551-6.551H592.193a6.554,6.554,0,0,0-6.551,6.551v7.134a4.215,4.215,0,0,0-1.656-.258,4.543,4.543,0,0,0-4.137,4.787c-.046,4.9-1.816,9.29-3.379,13.164-1.635,4.055-3.049,7.552-2.1,10.694.17.562.454,1.346.789,2.254.763,2.074,2.079,5.638,2.141,7.717l-6.979,6.2a1.536,1.536,0,1,0,2.043,2.3l5.855-5.2,16.595,17.91-2.306,2.136a1.537,1.537,0,0,0,2.089,2.254l3.43-3.183a1.528,1.528,0,0,0,.083-2.167l-.505-.547c.732-.423,1.661-.887,2.677-1.4,4.23-2.12,10.028-5.024,13.1-10.157a.391.391,0,0,0,.047-.093h.413a6.556,6.556,0,0,0,6.551-6.546v-8.016a4.487,4.487,0,0,0,2.873-7.727,4.031,4.031,0,0,0-.547-.444,4.571,4.571,0,0,0,.557-8.14l1.135-.717a4.6,4.6,0,0,0-4.018-8.217V92.442Zm-4.343-4.668.98-.629a1.615,1.615,0,0,1,2.213.5,1.615,1.615,0,0,1-.5,2.213l-2.7,1.713ZM598.9,141.082c-1.326.665-2.507,1.259-3.436,1.842L580.308,126.56c.31-2.5-.892-6.061-2.27-9.8-.309-.841-.578-1.558-.732-2.079-.629-2.11.593-5.148,2.012-8.666,1.661-4.122,3.549-8.8,3.6-14.279.016-1.161.635-1.713,1.248-1.749.717-.031,1.31.681,1.475,1.852V127.03a6.553,6.553,0,0,0,6.551,6.546H609.7C606.879,137.084,602.329,139.364,598.9,141.082Zm18.416-14.052a3.478,3.478,0,0,1-3.477,3.477H592.193a3.48,3.48,0,0,1-3.482-3.477v-2.471h24.58a1.535,1.535,0,1,0,0-3.069h-24.58V80.041a3.484,3.484,0,0,1,3.482-3.482h21.645a3.483,3.483,0,0,1,3.477,3.482V95.584l-1.207.763a4.612,4.612,0,0,0-1.419,6.355,4.443,4.443,0,0,0,.727.877,4.574,4.574,0,0,0-.371,8.362,4.414,4.414,0,0,0-.851,2.719,4.5,4.5,0,0,0,3.121,4.173Zm2.878-11.086-1.475.036a1.227,1.227,0,0,1-1.011-.4,1.4,1.4,0,0,1-.444-.99,1.423,1.423,0,0,1,.4-1.011,1.4,1.4,0,0,1,.99-.444l1.481-.031h.031a1.419,1.419,0,0,1,.031,2.837Zm1.186-7.877-3.843,1.212a1.49,1.49,0,0,1-1.15-.1,1.471,1.471,0,0,1-.743-.877,1.509,1.509,0,0,1,.985-1.893l3.843-1.212a1.511,1.511,0,0,1,.449-.072,1.531,1.531,0,0,1,1.444,1.052A1.511,1.511,0,0,1,621.38,108.067Zm-.263-11.261a1.533,1.533,0,1,1,1.64,2.59l-3.363,2.136a1.528,1.528,0,0,1-2.311-1.63,1.515,1.515,0,0,1,.671-.959Z" transform="translate(-569.8 -73.49)"/><path class="a" d="M631.518,93h-6.268a1.55,1.55,0,0,0-.1-.815l-.361-.882a2.355,2.355,0,1,1,4.354-1.8l.361.877a1.535,1.535,0,1,0,2.837-1.171l-.361-.877a5.162,5.162,0,0,0-.4-.789,5.432,5.432,0,0,0-6.685-2.156,5.32,5.32,0,0,0-2.533,2.156,5.406,5.406,0,0,0-.413,4.931l.227.536a3.142,3.142,0,0,0-2.811,3.121v5.974a3.142,3.142,0,0,0,3.136,3.136h9.022a3.143,3.143,0,0,0,3.142-3.136V96.138A3.143,3.143,0,0,0,631.518,93Zm.067,9.11a.068.068,0,0,1-.067.067l-7.289-.052-1.8-.015.067-6.041,9.089.067Z" transform="translate(-593.794 -79.053)"/></g></g><g transform="translate(235.621 146.984)"><path class="b" d="M250.287,218.2l.416-2.236h6.189c2.288.988,2.288,3.016,1.924,5.2l-4.42,25.222c-.052.312-.156,1.248.26,1.248.52,0,2.912-2.08,2.912-2.08l1.612,2.236s-3.172,3.588-6.5,3.588a4.713,4.713,0,0,1-4.056-1.768,12.776,12.776,0,0,1-6.4,1.716c-3.692,0-6.6-3.38-6.6-8.685,0-6.813,3.8-13.469,10.609-13.469a10.519,10.519,0,0,1,4.889,1.248l1.456-8.113C252.886,220.486,253.095,218.3,250.287,218.2ZM248.1,246.437l2.445-12.534a5.908,5.908,0,0,0-3.485-1.2c-3.328,0-4.732,5.461-4.732,10.609,0,2.809.988,4.421,2.34,4.421A7.293,7.293,0,0,0,248.1,246.437Z" transform="translate(-235.621 -215.962)"/><path class="b" d="M299.386,261.386a14.054,14.054,0,0,1-7.02,2.34c-3.693,0-6.241-2.86-6.241-8.061,0-5.772,3.432-14.2,10.089-14.2a13.442,13.442,0,0,1,6.449,1.82,5.727,5.727,0,0,1,1.768-1.2h3.432L305,258.786c-.156.78,0,1.2.416,1.2.728,0,2.7-2.08,2.7-2.08l1.612,2.236s-3.172,3.588-6.5,3.588C300.895,263.726,299.439,262.114,299.386,261.386Zm-6.552-5.46c0,2.808.676,4.16,2.08,4.16s2.964-1.2,4.056-1.873l2.08-11.909a6.557,6.557,0,0,0-3.745-1.04C294.082,245.265,292.834,252.961,292.834,255.926Z" transform="translate(-260.073 -228.311)"/><path class="b" d="M362.739,249.908a3.2,3.2,0,0,1,.052-.676l2.34-12.273c.208-1.092-.52-1.924-2.236-1.976l.468-2.652h6.292a3.362,3.362,0,0,1,2.133,3.38,11.467,11.467,0,0,1-.208,1.82l-2.132,10.557c-.052.208-.416,1.976.052,1.976.676,0,3.016-2.08,3.016-2.08l1.56,2.288s-3.12,3.588-6.449,3.588C364.715,253.86,362.739,252.092,362.739,249.908Zm6.345-21.946c-2.08,0-3.537-.988-3.537-2.756.26-2.7,2.652-3.9,4.837-3.9,1.872,0,3.172.988,3.172,2.653C373.556,226.089,371.84,227.961,369.084,227.961Z" transform="translate(-297.165 -218.549)"/><path class="b" d="M412.622,257.742l1.613,2.288s-3.172,3.64-6.5,3.64c-3.172,0-5.2-2.132-4.732-4.68l1.924-9.569c.208-1.352.312-4.16-1.508-4.16a11.476,11.476,0,0,0-3.952,1.352,22.392,22.392,0,0,1-.572,4.056L396.656,263.1h-6.4l2.6-14.769c.312-1.716.728-3.8-1.612-3.8l.26-2.392H396.4a3.688,3.688,0,0,1,2.392,1.664c2.08-.988,4.577-2.236,7.436-2.236,4.577,0,5.877,3.692,5.149,7.8l-1.82,8.945c-.26,1.352-.052,1.56.312,1.56C410.646,259.875,412.622,257.742,412.622,257.742Z" transform="translate(-310.49 -228.36)"/><path class="b" d="M434.8,233.7l.572-3.225h3.484L440,224.439c.832-4.264,4.785-8.477,9.777-8.477,5.357,0,6.6,3.172,6.6,3.172l-.572,3.277H451.08a3.541,3.541,0,0,0,.052-.624c0-.936-.208-2.653-1.612-2.653-1.56,0-2.548,2.08-3.12,5.045l-1.2,6.292h5.044l-.468,3.225h-5.044L441.25,254.55c-.78,4.68-5.148,7.332-9.465,7.332s-6.344-.936-6.344-2.808a3.021,3.021,0,0,1,3.172-2.808c2.5,0,1.768,2.652,3.381,2.652,1.664,0,2.6-2.912,2.86-4.577l3.432-20.646Z" transform="translate(-327.523 -215.962)"/><path class="b" d="M487.982,247.477c.624,0,3.016-2.133,3.016-2.133l1.613,2.288s-3.121,3.64-6.5,3.64c-3.277,0-5.253-2.184-4.784-4.68l4.264-24.287c.312-1.82.624-4.108-2.028-4.108l.468-2.236h6.293c2.288.988,2.288,3.016,1.924,5.2l-4.421,24.755C487.618,247.217,487.67,247.477,487.982,247.477Z" transform="translate(-354.546 -215.962)"/><path class="b" d="M532.135,260.36c1.041,0,3.017-2.133,3.017-2.133l1.612,2.236s-3.172,3.745-6.5,3.745a4.761,4.761,0,0,1-4.109-1.82c-1.716.676-4.368,1.82-6.656,1.82-4.836,0-6.76-2.912-5.824-7.9l1.456-7.853c.364-1.872-.052-3.224-2.288-3.536l.364-2.236h6.449c2.393.884,2.288,2.86,1.873,5.252l-1.508,8.217c-.572,3.12.052,5.2,2.652,4.368l3.016-.988c.1-1.3.468-3.172.676-4.421l1.716-9.673-2.7-.624.312-2.132h9.257l-2.86,16.07C531.875,260,531.927,260.36,532.135,260.36Z" transform="translate(-369.838 -228.897)"/><path class="b" d="M563.648,247.283c0-6.969,5.149-13.573,12.95-13.573,5.1,0,7.593,2.236,7.593,5.409,0,6.761-8.217,8.113-13.938,8.216a11.938,11.938,0,0,0-.1,1.353c0,2.392.988,4.108,3.328,4.108,2.808,0,3.38-1.56,3.536-1.976a2.825,2.825,0,0,1,2.808-1.508,2.315,2.315,0,0,1,2.5,2.184c-.416,2.5-4.368,4.369-9.413,4.369C566.665,255.864,563.648,252.484,563.648,247.283Zm6.553-2.964c2.548,0,5.876-.624,7.332-3.016a4.662,4.662,0,0,0,.52-2.184c0-1.3-.676-2.236-1.976-2.236C573.009,236.883,570.929,239.795,570.2,244.319Zm10.193-18.982,4.732,5.513a.9.9,0,0,1,.312.624c0,.468-.52.78-1.248.78a2.737,2.737,0,0,1-1.2-.312l-4.628-3.12-6.033,3.069a1.988,1.988,0,0,1-.676.207.889.889,0,0,1-.884-.936,1.423,1.423,0,0,1,.624-1.092l5.877-4.733Z" transform="translate(-394.436 -220.501)"/><path class="b" d="M632.483,257.742l1.612,2.288s-3.172,3.64-6.5,3.64c-3.172,0-5.2-2.132-4.732-4.68l1.924-9.569c.208-1.352.312-4.16-1.508-4.16a11.468,11.468,0,0,0-3.952,1.352,22.4,22.4,0,0,1-.573,4.056L616.517,263.1h-6.4l2.6-14.769c.313-1.716.728-3.8-1.612-3.8l.26-2.392h4.889a3.687,3.687,0,0,1,2.392,1.664c2.08-.988,4.576-2.236,7.436-2.236,4.577,0,5.877,3.692,5.149,7.8l-1.821,8.945c-.26,1.352-.052,1.56.313,1.56C630.507,259.875,632.483,257.742,632.483,257.742Z" transform="translate(-416.936 -228.36)"/><path class="b" d="M661.634,255.038c0-7.853,4.837-13.469,12.534-13.469a14.346,14.346,0,0,1,7.852,2.548l-.884,4.68h-4.316s-.1-4.056-3.172-4.056c-4.316,0-5.1,7.749-5.1,10.869,0,2.964.624,4.94,2.548,4.94,3.172,0,2.7-3.484,5.981-3.484a2.186,2.186,0,0,1,2.444,2.028c0,3.329-6.5,4.681-8.789,4.681C666,263.775,661.634,261.643,661.634,255.038Z" transform="translate(-441.876 -228.36)"/><path class="b" d="M705.283,249.908a3.2,3.2,0,0,1,.052-.676l2.34-12.273c.208-1.092-.52-1.924-2.236-1.976l.468-2.652H712.2a3.363,3.363,0,0,1,2.133,3.38,11.527,11.527,0,0,1-.208,1.82l-2.133,10.557c-.052.208-.416,1.976.053,1.976.676,0,3.016-2.08,3.016-2.08l1.56,2.288s-3.12,3.588-6.449,3.588C707.259,253.86,705.283,252.092,705.283,249.908Zm6.345-21.946c-2.08,0-3.536-.988-3.536-2.756.259-2.7,2.652-3.9,4.837-3.9,1.871,0,3.172.988,3.172,2.653C716.1,226.089,714.384,227.961,711.628,227.961Z" transform="translate(-463.009 -218.549)"/><path class="b" d="M745.561,261.386a14.059,14.059,0,0,1-7.021,2.34c-3.692,0-6.24-2.86-6.24-8.061,0-5.772,3.432-14.2,10.089-14.2a13.442,13.442,0,0,1,6.449,1.82,5.73,5.73,0,0,1,1.768-1.2h3.432l-2.86,16.694c-.156.78,0,1.2.416,1.2.728,0,2.7-2.08,2.7-2.08l1.613,2.236s-3.172,3.588-6.5,3.588C747.07,263.726,745.613,262.114,745.561,261.386Zm-6.553-5.46c0,2.808.676,4.16,2.08,4.16s2.964-1.2,4.056-1.873l2.08-11.909a6.556,6.556,0,0,0-3.744-1.04C740.257,245.265,739.008,252.961,739.008,255.926Z" transform="translate(-476.089 -228.311)"/></g></g></svg>