<svg xmlns="http://www.w3.org/2000/svg" width="940.589" height="661.235" viewBox="0 0 940.589 661.235"><defs><style>.a{fill:#fff;}.b{fill:#5c12aa;}</style></defs><g transform="translate(0 0)"><path class="a" d="M845.911,0H79.135A79.137,79.137,0,0,0,0,79.139V410.615a79.137,79.137,0,0,0,79.138,79.136h69.783V638.024L374.3,489.751H845.911a79.139,79.139,0,0,0,79.139-79.136V79.139A79.138,79.138,0,0,0,845.911,0Z" transform="translate(0 23.211)"/><path class="b" d="M845.911,0H79.135A79.137,79.137,0,0,0,0,79.139V410.615a79.137,79.137,0,0,0,79.138,79.136h69.783V638.024L374.3,489.751H845.911a79.139,79.139,0,0,0,79.139-79.136V79.139A79.138,79.138,0,0,0,845.911,0Z" transform="translate(15.539 0)"/></g></svg>