<svg xmlns="http://www.w3.org/2000/svg" width="42.575" height="150.165" viewBox="0 0 42.575 150.165"><defs><style>.a{fill:#fff;}.b{fill:#ff4a5a;}</style></defs><g transform="translate(-429.85 832.463) rotate(-90)"><path class="a" d="M-467.491,313.364l13.171-13.171a3.724,3.724,0,0,0,0-5.268l-1.756-1.756a3.723,3.723,0,0,0-5.268,0l-13.171,13.171-13.171-13.173a3.724,3.724,0,0,0-5.268,0l-1.759,1.756a3.724,3.724,0,0,0,0,5.268l13.173,13.173-13.171,13.171a3.723,3.723,0,0,0,0,5.268l1.756,1.756a3.724,3.724,0,0,0,5.268,0l13.171-13.171,13.171,13.171a3.724,3.724,0,0,0,5.268,0l1.756-1.756a3.724,3.724,0,0,0,0-5.268Zm0,0" transform="translate(1178.102 137.775)"/><path class="b" d="M-467.491,313.364l13.171-13.171a3.724,3.724,0,0,0,0-5.268l-1.756-1.756a3.723,3.723,0,0,0-5.268,0l-13.171,13.171-13.171-13.173a3.724,3.724,0,0,0-5.268,0l-1.759,1.756a3.724,3.724,0,0,0,0,5.268l13.173,13.173-13.171,13.171a3.723,3.723,0,0,0,0,5.268l1.756,1.756a3.724,3.724,0,0,0,5.268,0l13.171-13.171,13.171,13.171a3.724,3.724,0,0,0,5.268,0l1.756-1.756a3.724,3.724,0,0,0,0-5.268Zm0,0" transform="translate(1231.896 137.775)"/><path class="a" d="M-467.491,313.364l13.171-13.171a3.724,3.724,0,0,0,0-5.268l-1.756-1.756a3.723,3.723,0,0,0-5.268,0l-13.171,13.171-13.171-13.173a3.724,3.724,0,0,0-5.268,0l-1.759,1.756a3.724,3.724,0,0,0,0,5.268l13.173,13.173-13.171,13.171a3.723,3.723,0,0,0,0,5.268l1.756,1.756a3.724,3.724,0,0,0,5.268,0l13.171-13.171,13.171,13.171a3.724,3.724,0,0,0,5.268,0l1.756-1.756a3.724,3.724,0,0,0,0-5.268Zm0,0" transform="translate(1285.691 137.775)"/></g></svg>